<svg width="24" height="24" viewBox="0 0 24 24" fill="none" xmlns="http://www.w3.org/2000/svg">
<path fill-rule="evenodd" clip-rule="evenodd" d="M17.1093 5.61796C17.1093 8.72068 14.8218 11.2359 12 11.2359C9.17823 11.2359 6.89073 8.72068 6.89073 5.61796C6.89073 2.51525 9.17823 0 12 0C14.8218 0 17.1093 2.51525 17.1093 5.61796ZM15.4062 5.61796C15.4062 7.68644 13.8812 9.36327 12 9.36327C10.1188 9.36327 8.59382 7.68644 8.59382 5.61796C8.59382 3.54949 10.1188 1.87265 12 1.87265C13.8812 1.87265 15.4062 3.54949 15.4062 5.61796Z" fill="#EADDFF"/>
<path d="M12 14.0449C6.48677 14.0449 1.78936 17.6295 0 22.6517C0.435901 23.1276 0.895091 23.5778 1.37552 24C2.70797 19.3892 6.88794 15.9176 12 15.9176C17.1121 15.9176 21.292 19.3892 22.6245 24C23.1049 23.5778 23.5641 23.1276 24 22.6517C22.2106 17.6296 17.5132 14.0449 12 14.0449Z" fill="#EADDFF"/>
</svg>
