<svg width="42" height="42" viewBox="0 0 42 42" fill="none" xmlns="http://www.w3.org/2000/svg">
<g clip-path="url(#clip0_84_650)">
<path d="M14.6313 1.38138C10.4349 2.83717 6.81587 5.60031 4.30587 9.26492C1.79587 12.9295 0.527182 17.3025 0.686161 21.7414C0.845141 26.1804 2.42341 30.4513 5.18913 33.927C7.95486 37.4027 11.7623 39.8998 16.0521 41.0517C19.53 41.9491 23.1738 41.9885 26.6702 41.1665C29.8377 40.4551 32.7661 38.9332 35.1687 36.75C37.6693 34.4083 39.4843 31.4294 40.4187 28.1334C41.4339 24.5491 41.6147 20.7799 40.947 17.115H21.417V25.2164H32.7274C32.5014 26.5085 32.017 27.7417 31.3032 28.8423C30.5894 29.9428 29.661 30.888 28.5734 31.6214C27.1924 32.5353 25.6354 33.1501 24.0026 33.4261C22.3651 33.7306 20.6854 33.7306 19.0479 33.4261C17.3881 33.0833 15.818 32.3983 14.4377 31.4147C12.2201 29.8449 10.555 27.6147 9.67993 25.0425C8.79035 22.422 8.79035 19.5812 9.67993 16.9608C10.3028 15.124 11.3325 13.4516 12.6921 12.0684C14.2481 10.4565 16.2179 9.30428 18.3856 8.7382C20.5533 8.17211 22.835 8.21403 24.9804 8.85935C26.6565 9.3736 28.1891 10.2725 29.456 11.4844C30.7313 10.2156 32.0045 8.94357 33.2754 7.66826C33.9316 6.98248 34.647 6.32951 35.2934 5.62732C33.3592 3.82762 31.089 2.42713 28.6127 1.50607C24.1033 -0.131305 19.1692 -0.175308 14.6313 1.38138Z" fill="white"/>
<path d="M14.6307 1.38103C19.1683 -0.176724 24.1024 -0.13388 28.6121 1.50243C31.0888 2.42975 33.358 3.83698 35.2895 5.64337C34.6332 6.34556 33.9409 7.00181 33.2715 7.68431C31.9984 8.95524 30.7264 10.2218 29.4554 11.484C28.1885 10.2722 26.6559 9.37324 24.9798 8.85899C22.8351 8.21141 20.5535 8.16707 18.3852 8.73084C16.217 9.2946 14.2459 10.4447 12.6882 12.0549C11.3286 13.4381 10.2989 15.1105 9.67605 16.9473L2.87402 11.6809C5.30874 6.85271 9.52429 3.15954 14.6307 1.38103Z" fill="#E33629"/>
<path d="M1.06995 16.8988C1.43528 15.0868 2.04227 13.3321 2.87464 11.6816L9.67667 16.9612C8.78709 19.5816 8.78709 22.4224 9.67667 25.0429C7.41042 26.7929 5.14308 28.5516 2.87464 30.3191C0.79154 26.1727 0.156231 21.4483 1.06995 16.8988Z" fill="#F8BD00"/>
<path d="M21.4165 17.1113H40.9465C41.6142 20.7763 41.4335 24.5455 40.4182 28.1298C39.4838 31.4257 37.6688 34.4047 35.1682 36.7463C32.9731 35.0335 30.7681 33.3338 28.5729 31.621C29.6612 30.8869 30.5901 29.9407 31.3039 28.839C32.0177 27.7372 32.5017 26.5027 32.727 25.2095H21.4165C21.4132 22.5123 21.4165 19.8118 21.4165 17.1113Z" fill="#587DBD"/>
<path d="M2.87109 30.3192C5.13953 28.5692 7.40687 26.8105 9.67312 25.043C10.5499 27.6161 12.2174 29.8464 14.4375 31.4152C15.822 32.3942 17.3955 33.0736 19.0575 33.4102C20.695 33.7147 22.3747 33.7147 24.0122 33.4102C25.645 33.1342 27.202 32.5194 28.583 31.6055C30.7781 33.3183 32.9831 35.018 35.1783 36.7308C32.776 38.9152 29.8476 40.4382 26.6798 41.1506C23.1834 41.9726 19.5396 41.9332 16.0617 41.0358C13.3111 40.3013 10.7417 39.0066 8.51484 37.2328C6.15801 35.3613 4.23293 33.003 2.87109 30.3192Z" fill="#319F43"/>
</g>
<defs>
<clipPath id="clip0_84_650">
<rect width="42" height="42" fill="white"/>
</clipPath>
</defs>
</svg>
