<svg width="50" height="51" viewBox="0 0 50 51" fill="none" xmlns="http://www.w3.org/2000/svg">
<g filter="url(#filter0_d_84_2850)">
<path d="M34 42.3649H16C14.5 42.3649 13.4 42.3037 12.46 42.1607C5.82 41.4257 4.5 37.3628 4.5 30.6253V18.3753C4.5 11.6378 5.82 7.57491 12.52 6.81949C13.4 6.69699 14.5 6.63574 16 6.63574H34C35.5 6.63574 36.6 6.69699 37.54 6.83991C44.18 7.57491 45.5 11.6378 45.5 18.3753V30.6253C45.5 37.3628 44.18 41.4257 37.48 42.1812C36.6 42.3037 35.5 42.3649 34 42.3649ZM16 9.69824C14.64 9.69824 13.68 9.75949 12.9 9.86158C8.84 10.3312 7.5 11.6174 7.5 18.3753V30.6253C7.5 37.3832 8.84 38.6695 12.84 39.1391C13.68 39.2616 14.64 39.3024 16 39.3024H34C35.36 39.3024 36.32 39.2412 37.1 39.1391C41.16 38.6899 42.5 37.3832 42.5 30.6253V18.3753C42.5 11.6174 41.16 10.3312 37.16 9.86158C36.32 9.73908 35.36 9.69824 34 9.69824H16Z" fill="white"/>
<path d="M35 21.9482H28C27.18 21.9482 26.5 21.2541 26.5 20.417C26.5 19.5799 27.18 18.8857 28 18.8857H35C35.82 18.8857 36.5 19.5799 36.5 20.417C36.5 21.2541 35.82 21.9482 35 21.9482Z" fill="white"/>
<path d="M21.1992 22.4583C20.0992 22.4583 19.1992 21.5396 19.1992 20.4167C19.1992 19.2937 20.0792 18.375 21.1992 18.375H21.2192C22.3192 18.375 23.2192 19.2937 23.2192 20.4167C23.2192 21.5396 22.3192 22.4583 21.1992 22.4583Z" fill="white"/>
<path d="M15.1992 22.4583C14.0992 22.4583 13.1992 21.5396 13.1992 20.4167C13.1992 19.2937 14.0792 18.375 15.1992 18.375C16.2992 18.375 17.1992 19.2937 17.1992 20.4167C17.1992 21.5396 16.3192 22.4583 15.1992 22.4583Z" fill="white"/>
<path d="M34.9996 33.1768H15.0395C14.2195 33.1768 13.5195 32.4826 13.5195 31.6455C13.5195 30.8084 14.1795 30.1143 14.9995 30.1143H34.9996C35.8196 30.1143 36.4996 30.8084 36.4996 31.6455C36.4996 32.4826 35.8196 33.1768 34.9996 33.1768Z" fill="white"/>
</g>
<defs>
<filter id="filter0_d_84_2850" x="-3" y="0" width="56" height="57" filterUnits="userSpaceOnUse" color-interpolation-filters="sRGB">
<feFlood flood-opacity="0" result="BackgroundImageFix"/>
<feColorMatrix in="SourceAlpha" type="matrix" values="0 0 0 0 0 0 0 0 0 0 0 0 0 0 0 0 0 0 127 0" result="hardAlpha"/>
<feOffset dy="4"/>
<feGaussianBlur stdDeviation="2"/>
<feComposite in2="hardAlpha" operator="out"/>
<feColorMatrix type="matrix" values="0 0 0 0 0 0 0 0 0 0 0 0 0 0 0 0 0 0 0.5 0"/>
<feBlend mode="normal" in2="BackgroundImageFix" result="effect1_dropShadow_84_2850"/>
<feBlend mode="normal" in="SourceGraphic" in2="effect1_dropShadow_84_2850" result="shape"/>
</filter>
</defs>
</svg>
