<svg width="177" height="377" viewBox="0 0 177 377" fill="none" xmlns="http://www.w3.org/2000/svg">
<path d="M-1.00166 0.810237C22.2421 0.703877 45.2805 5.46127 66.7981 14.8108C88.3157 24.1603 107.891 37.9189 124.407 55.3009C140.923 72.6829 154.055 93.348 163.054 116.116C172.054 138.885 176.744 163.31 176.857 187.998C176.97 212.687 172.503 237.154 163.713 260.004C154.922 282.853 141.979 303.638 125.623 321.17C109.268 338.703 89.8188 352.64 68.3876 362.186C46.9564 371.732 23.9626 376.7 0.718831 376.806L0.710229 374.926C23.7215 374.821 46.4854 369.903 67.7023 360.452C88.9192 351.001 108.173 337.204 124.366 319.847C140.558 302.49 153.371 281.913 162.074 259.292C170.777 236.671 175.199 212.448 175.087 188.006C174.975 163.565 170.332 139.384 161.422 116.843C152.513 94.3026 139.512 73.8442 123.161 56.636C106.811 39.4278 87.4312 25.8068 66.1287 16.5508C44.8262 7.29476 22.0182 2.58493 -0.993055 2.69022L-1.00166 0.810237Z" fill="url(#paint0_linear_84_2795)"/>
<defs>
<linearGradient id="paint0_linear_84_2795" x1="-1.00166" y1="0.810237" x2="0.718846" y2="376.806" gradientUnits="userSpaceOnUse">
<stop stop-color="#8BDEDA"/>
<stop offset="0.5" stop-color="#8BDEDA"/>
<stop offset="0.75" stop-color="#998EE0"/>
<stop offset="0.875" stop-color="#EF9393"/>
<stop offset="1" stop-color="#EF9393"/>
</linearGradient>
</defs>
</svg>
