<svg width="58" height="48" viewBox="0 0 58 48" fill="none" xmlns="http://www.w3.org/2000/svg">
<path d="M7.25 12L14.5 4H43.5L50.75 12M7.25 12V40C7.25 41.0609 7.75922 42.0783 8.66565 42.8284C9.57208 43.5786 10.8015 44 12.0833 44H45.9167C47.1985 44 48.4279 43.5786 49.3343 42.8284C50.2408 42.0783 50.75 41.0609 50.75 40V12M7.25 12H50.75M38.6667 20C38.6667 22.1217 37.6482 24.1566 35.8354 25.6569C34.0225 27.1571 31.5638 28 29 28C26.4362 28 23.9775 27.1571 22.1646 25.6569C20.3518 24.1566 19.3333 22.1217 19.3333 20" stroke="#F5F5F5" stroke-width="4" stroke-linecap="round" stroke-linejoin="round"/>
</svg>
